<svg width="64" height="80" fill="none" xmlns="http://www.w3.org/2000/svg"><path d="M54.019 32.661c0 9.94-6.558 18.341-15.575 21.21-2.152.718-4.406 1.025-6.66 1.025-1.025 0-1.947-.102-2.972-.205-5.533-.717-10.554-3.586-13.935-7.685.82-6.25 6.045-10.964 12.296-10.964 2.357 0 4.508.615 6.353 1.845 2.766-3.791 6.66-6.558 11.373-7.685 3.074-.717 6.148-.615 9.017.102.103.82.103 1.537.103 2.357Z" fill="#B8884B"/><path d="M39.98 62.478C53.917 58.79 63.549 46.188 63.549 31.74c0-8.71-3.689-17.214-10.042-23.157-6.455-6.046-14.96-9.12-23.772-8.505C13.647 1.102.634 14.525.02 30.612c-.512 14.857 9.12 27.973 23.465 31.764.512.102 1.025.512 1.332 1.025l2.664 5.328c-5.123.717-9.427 2.561-9.427 5.533 0 3.791 7.07 5.738 13.73 5.738s13.731-2.05 13.731-5.738c0-2.972-4.406-4.816-9.53-5.533 1.025-2.05 1.948-4.099 2.562-5.226.308-.512.82-.82 1.435-1.025Zm3.485 11.784c0 1.537-4.509 3.689-11.681 3.689-7.173 0-11.681-2.254-11.681-3.689 0-1.23 3.176-2.972 8.3-3.586 1.126 2.254 1.946 4.098 1.946 4.406h2.87c0-.41.819-2.254 1.843-4.406 5.226.614 8.403 2.356 8.403 3.586Zm-6.763-11.579c-.82 1.537-1.844 3.792-2.869 5.943-.307.718-.615 1.332-.922 2.05-.513.922-.82 1.844-1.127 2.561-.308-.717-.718-1.537-1.127-2.561-.308-.615-.615-1.332-1.025-2.05-1.025-2.151-2.254-4.406-3.074-6.045-.512-1.025-1.435-1.844-2.562-2.152C10.573 56.843 1.556 44.547 2.07 30.714 2.58 15.652 14.775 3.05 29.837 2.127c.615 0 1.332-.103 1.947-.103 7.582 0 14.755 2.87 20.288 8.095 6.045 5.635 9.426 13.423 9.426 21.62 0 13.423-9.119 25.309-22.03 28.69-1.23.41-2.254 1.127-2.766 2.254Z" fill="#01305E"/><path d="M31.784 54.793c-12.706 0-23.055-10.349-23.055-23.054 0-12.706 10.349-23.055 23.055-23.055 12.705 0 23.054 10.349 23.054 23.055 0 12.705-10.349 23.054-23.054 23.054Zm0-44.06c-11.579 0-21.006 9.427-21.006 21.006 0 11.578 9.427 21.005 21.006 21.005 11.578 0 21.005-9.427 21.005-21.005 0-11.579-9.427-21.006-21.005-21.006Z" fill="#01305E"/><path d="M25.123 28.87c-3.074 0-5.635-2.562-5.635-5.636 0-3.074 2.561-5.635 5.635-5.635s5.636 2.561 5.636 5.635-2.562 5.636-5.636 5.636Zm0-9.222c-1.947 0-3.586 1.64-3.586 3.586 0 1.947 1.64 3.586 3.586 3.586 1.947 0 3.587-1.639 3.587-3.586 0-1.947-1.64-3.586-3.587-3.586Z" fill="#01305E"/></svg>