<svg width="81" height="74" fill="none" xmlns="http://www.w3.org/2000/svg"><path d="M40.802 9.966a4.995 4.995 0 0 0-4.987 4.987 4.995 4.995 0 0 0 4.987 4.987 4.995 4.995 0 0 0 4.987-4.987 4.995 4.995 0 0 0-4.987-4.987Z" fill="#B8884B"/><path d="M27.774 2.943V71.34h26.463V2.943H27.774Zm14.351 61.985L40.7 66.353 34.9 60.55l1.425-1.425 4.274 4.377 4.275-4.377 1.425 1.425-4.173 4.377ZM46.4 39.177v2.036H35.204v-2.036H46.4Zm-11.196-4.478v-2.036H46.4v2.036H35.204Zm4.784 11.094v2.035h-4.886v-2.035h4.886Zm.814-23.817c-3.868 0-7.023-3.155-7.023-7.023s3.155-7.023 7.023-7.023 7.023 3.155 7.023 7.023-3.155 7.023-7.023 7.023Z" fill="#B8884B"/><path d="M28.588 73.782H.7V.5h27.888v73.282ZM2.736 71.747h23.817V2.536H2.736v69.21ZM80.7 73.782H52.812V.5H80.7v73.282Zm-25.852-2.035h23.816V2.536H54.848v69.21Z" fill="#01305E"/><path d="m20.751 60.55-4.377 4.377-1.424 1.425-5.802-5.801 1.527-1.425 4.274 4.377 4.275-4.377 1.527 1.425ZM72.456 60.55l-4.275 4.377-1.425 1.425-5.801-5.801 1.425-1.425 4.376 4.377 4.275-4.377 1.425 1.425ZM20.547 32.663H9.352V34.7h11.195v-2.036ZM14.95 21.976c-3.868 0-7.023-3.155-7.023-7.023S11.082 7.93 14.95 7.93c3.867 0 7.023 3.155 7.023 7.023s-3.156 7.023-7.023 7.023Zm0-12.01a4.995 4.995 0 0 0-4.988 4.987 4.995 4.995 0 0 0 4.988 4.987 4.995 4.995 0 0 0 4.987-4.987 4.995 4.995 0 0 0-4.987-4.987ZM66.858 21.976c-3.868 0-7.023-3.155-7.023-7.023S62.99 7.93 66.858 7.93c3.867 0 7.023 3.155 7.023 7.023s-3.156 7.023-7.023 7.023Zm0-12.01a4.995 4.995 0 0 0-4.987 4.987 4.995 4.995 0 0 0 4.987 4.987 4.995 4.995 0 0 0 4.987-4.987 4.995 4.995 0 0 0-4.987-4.987ZM20.547 39.177H9.352v2.035h11.195v-2.035ZM14.237 45.792H9.352v2.036h4.885v-2.036ZM72.354 32.663H61.158V34.7h11.196v-2.036ZM72.354 39.177H61.158v2.035h11.196v-2.035ZM66.044 45.792h-4.886v2.036h4.886v-2.036Z" fill="#01305E"/></svg>