<svg width="224" height="58" fill="none" xmlns="http://www.w3.org/2000/svg"><path d="M5.811 51.638c0-1.373-.95-2.271-2.219-2.271-1.215 0-2.166.898-2.166 2.271 0 1.374.951 2.272 2.166 2.272 1.268 0 2.22-.898 2.22-2.272Zm1.215 0c0 1.955-1.373 3.276-3.275 3.276-.898 0-1.744-.37-2.272-1.057v3.328H.317v-8.77h1.11v1.057c.528-.74 1.373-1.056 2.324-1.056 1.902-.053 3.275 1.268 3.275 3.222ZM12.573 52.906v-.898h-1.796c-1.162 0-1.479.475-1.479 1.004 0 .634.528 1.056 1.426 1.056.846 0 1.585-.422 1.85-1.162Zm1.216-1.902v3.91h-1.11v-.846c-.37.582-1.11.899-2.113.899-1.48 0-2.43-.793-2.43-1.902 0-1.057.687-1.902 2.641-1.902h1.85v-.211c0-1.004-.582-1.533-1.744-1.533-.792 0-1.585.265-2.06.687l-.476-.898c.687-.528 1.638-.845 2.694-.845 1.744 0 2.748.845 2.748 2.641ZM20.657 53.012c0 1.162-1.321 1.955-3.012 1.955-.95 0-1.902-.265-2.641-.74l.37-.898c.634.422 1.479.634 2.271.634 1.11 0 1.85-.423 1.85-1.057 0-.58-.582-.95-1.533-.95h-1.215v-.846h1.11c.845 0 1.426-.317 1.426-.845 0-.581-.687-.898-1.638-.898-.686 0-1.32.158-2.06.475l-.317-.898a5.34 5.34 0 0 1 2.483-.581c1.585 0 2.747.687 2.747 1.743 0 .634-.475 1.163-1.162 1.427.845.21 1.32.74 1.32 1.479ZM23.245 53.857h3.646v-4.385h-2.8l-.053 1.215c-.053 1.32-.211 2.642-.793 3.17Zm5.812 0v2.536h-1.11v-1.48h-5.441v1.48h-1.11v-2.536h.317c.951-.053 1.11-1.638 1.163-3.223l.105-2.166h5.072v5.389h1.004ZM35.132 53.012c0-.687-.422-1.004-1.373-1.004h-1.955v1.955h1.902c.95 0 1.426-.264 1.426-.95Zm-3.38-1.796h1.743c.898 0 1.373-.317 1.373-.95 0-.635-.475-.899-1.373-.899H31.75v1.849Zm4.543 1.902c0 1.11-.846 1.796-2.59 1.796H30.59v-6.498H33.6c1.532 0 2.43.581 2.43 1.638 0 .686-.37 1.215-1.056 1.426.95.264 1.32.793 1.32 1.638ZM38.144 48.416h1.215v4.702l3.962-4.702h1.056v6.445h-1.162V50.16l-3.962 4.702h-1.11v-6.445ZM52.619 52.167h-1.268v2.694h-1.215v-2.694h-1.268l-1.743 2.694h-1.427l2.22-3.328-2.061-3.117h1.268l1.743 2.747h1.268v-2.747h1.215v2.747h1.268l1.743-2.747h1.268l-2.06 3.117 2.219 3.328h-1.374l-1.796-2.694ZM57.11 48.416h1.162v2.747h3.698v-2.747h1.215v6.445H61.97v-2.694h-3.698v2.694h-1.163v-6.445ZM71.902 48.416h1.162v6.445h-1.162v-6.445Zm-2.166 4.28c0-.846-.529-1.216-1.638-1.216h-1.48v2.536h1.48c1.057 0 1.638-.423 1.638-1.32Zm1.215 0c0 1.373-1.004 2.165-2.747 2.165h-2.747v-6.445h1.162v2.166h1.743c1.69.053 2.589.792 2.589 2.113ZM75.97 51.216h4.174c-.106-1.057-.952-1.849-2.114-1.849-1.11 0-1.954.74-2.06 1.849Zm5.283.845H75.97c.158 1.11 1.056 1.902 2.377 1.902.74 0 1.427-.264 1.902-.792l.634.74c-.581.686-1.48 1.056-2.589 1.056-2.113 0-3.486-1.374-3.486-3.276 0-1.901 1.373-3.275 3.275-3.275s3.223 1.32 3.223 3.328c-.053.053-.053.212-.053.317ZM85.796 51.638c0-1.902 1.427-3.275 3.434-3.275 1.163 0 2.114.475 2.642 1.373l-.898.582c-.423-.634-1.057-.899-1.744-.899-1.268 0-2.219.899-2.219 2.272 0 1.374.951 2.272 2.22 2.272.686 0 1.373-.317 1.743-.898l.898.58c-.528.899-1.48 1.374-2.642 1.374-2.007-.052-3.434-1.426-3.434-3.38ZM98.159 49.473H95.78v5.388H94.62v-5.388h-2.377v-1.057h5.917v1.057ZM99.69 51.216h4.174c-.106-1.057-.951-1.849-2.113-1.849-1.109 0-1.955.74-2.06 1.849Zm5.284.845h-5.283c.158 1.11 1.056 1.902 2.377 1.902.74 0 1.426-.264 1.902-.792l.634.74c-.581.686-1.479 1.056-2.589 1.056-2.113 0-3.487-1.374-3.487-3.276 0-1.901 1.374-3.275 3.276-3.275 1.902 0 3.222 1.32 3.222 3.328-.052.053-.052.212-.052.317ZM106.823 48.416h1.162v2.747h3.698v-2.747h1.162v6.445h-1.162v-2.694h-3.698v2.694h-1.162v-6.445ZM121.615 48.416h1.163v6.445h-1.163v-6.445Zm-2.166 4.28c0-.846-.528-1.216-1.637-1.216h-1.48v2.536h1.48c1.056 0 1.637-.423 1.637-1.32Zm1.163 0c0 1.373-1.004 2.165-2.748 2.165h-2.747v-6.445h1.162v2.166h1.744c1.743.053 2.589.792 2.589 2.113ZM128.377 48.416h1.163v4.702l4.015-4.702h1.056v6.445h-1.162V50.16l-3.962 4.702h-1.11v-6.445ZM146.234 48.416v6.445h-1.162v-5.388h-3.698v5.388h-1.163v-6.445h6.023ZM149.087 51.216h4.174c-.106-1.057-.951-1.849-2.114-1.849-1.109 0-1.901.74-2.06 1.849Zm5.283.845h-5.283c.159 1.11 1.057 1.902 2.377 1.902.74 0 1.374-.264 1.902-.792l.634.74c-.581.686-1.479 1.056-2.588 1.056-2.114 0-3.487-1.374-3.487-3.276 0-1.901 1.373-3.275 3.275-3.275s3.223 1.32 3.223 3.328c0 .053-.053.212-.053.317ZM161.766 51.638c0-1.373-.951-2.271-2.219-2.271-1.215 0-2.166.898-2.166 2.271 0 1.374.951 2.272 2.166 2.272 1.268 0 2.219-.898 2.219-2.272Zm1.215 0c0 1.955-1.374 3.276-3.276 3.276-.898 0-1.743-.37-2.271-1.057v3.328h-1.163v-8.77h1.11v1.057c.528-.74 1.374-1.056 2.324-1.056 1.902-.053 3.276 1.268 3.276 3.222ZM165.253 51.216h4.174c-.106-1.057-.951-1.849-2.114-1.849-1.109 0-1.954.74-2.06 1.849Zm5.283.845h-5.283c.159 1.11 1.057 1.902 2.377 1.902.74 0 1.374-.264 1.902-.792l.634.74c-.581.686-1.479 1.056-2.588 1.056-2.114 0-3.487-1.374-3.487-3.276 0-1.901 1.373-3.275 3.275-3.275s3.223 1.32 3.223 3.328c-.053.053-.053.212-.053.317ZM177.192 49.473h-3.645v5.388h-1.162v-6.445h4.807v1.057ZM183.056 51.638c0-1.373-.95-2.271-2.166-2.271-1.268 0-2.218.898-2.218 2.271 0 1.374.95 2.272 2.218 2.272s2.166-.898 2.166-2.272Zm-5.547 0c0-1.902 1.427-3.275 3.381-3.275 1.955 0 3.382 1.373 3.382 3.275s-1.427 3.276-3.382 3.276c-1.954.053-3.381-1.321-3.381-3.276ZM191.509 51.638c0-1.373-.95-2.271-2.218-2.271-1.215 0-2.166.898-2.166 2.271 0 1.374.951 2.272 2.166 2.272 1.268 0 2.218-.898 2.218-2.272Zm1.216 0c0 1.955-1.374 3.276-3.276 3.276-.898 0-1.743-.37-2.272-1.057v3.328h-1.162v-8.77h1.11v1.057c.528-.74 1.373-1.056 2.324-1.056 1.902-.053 3.276 1.268 3.276 3.222ZM199.381 51.638c0-1.373-.951-2.271-2.166-2.271-1.268 0-2.219.898-2.219 2.271 0 1.374.951 2.272 2.219 2.272 1.268 0 2.166-.898 2.166-2.272Zm-5.547 0c0-1.902 1.426-3.275 3.381-3.275 1.955 0 3.381 1.373 3.381 3.275s-1.426 3.276-3.381 3.276c-1.955.053-3.381-1.321-3.381-3.276ZM203.027 53.857h3.645v-4.385h-2.8l-.053 1.215c-.053 1.32-.211 2.642-.792 3.17Zm5.811 0v2.536h-1.057v-1.48h-5.441v1.48h-1.11v-2.536h.37c.951-.053 1.11-1.638 1.163-3.223l.105-2.166h5.072v5.389h.898ZM212.906 52.167h-1.321v2.694h-1.162v-6.445h1.162v2.747h1.374l2.113-2.747h1.268l-2.483 3.117 2.641 3.328h-1.373l-2.219-2.694ZM217.766 48.416h1.162v4.702l3.963-4.702H224v6.445h-1.215V50.16l-3.962 4.702h-1.057v-6.445ZM.422 1.767H18.65v3.486H4.068V16.56h14.58v3.487H4.069V37.69H.422V1.767ZM43.743 4.355c-2.694 0-5.23.687-7.66 2.06-2.43 1.374-4.28 3.276-5.653 5.6-1.374 2.325-2.008 4.966-2.008 7.872 0 4.28 1.48 7.872 4.491 10.83 3.011 2.959 6.604 4.438 10.83 4.438 2.8 0 5.442-.687 7.819-2.008 2.377-1.373 4.28-3.222 5.6-5.547 1.32-2.324 2.008-4.966 2.008-7.819 0-2.852-.687-5.441-2.008-7.766-1.32-2.324-3.223-4.173-5.706-5.547-2.43-1.426-5.019-2.113-7.713-2.113Zm-.211-3.54c5.494 0 10.143 1.797 13.841 5.442 3.699 3.645 5.547 8.083 5.547 13.419 0 5.283-1.849 9.72-5.547 13.419-3.698 3.645-8.241 5.494-13.524 5.494-5.389 0-9.932-1.849-13.683-5.494-3.698-3.646-5.547-8.083-5.547-13.26 0-3.435.845-6.657 2.535-9.616 1.691-2.958 4.016-5.283 6.921-6.92A19.01 19.01 0 0 1 43.532.814ZM71.532 1.767h3.645v32.49h13.947v3.434H71.532V1.767ZM138.256 1.291h-3.751v37.192h3.751V1.291ZM221.675 7.79l-2.8 2.64c-2.007-1.954-4.226-3.486-6.656-4.49-2.431-1.003-4.755-1.532-7.08-1.532-2.852 0-5.547.687-8.135 2.06-2.589 1.374-4.597 3.276-6.023 5.653-1.426 2.378-2.113 4.86-2.113 7.502 0 2.695.739 5.283 2.219 7.714 1.479 2.43 3.486 4.332 6.075 5.758a17.958 17.958 0 0 0 8.506 2.113c3.751 0 6.92-1.056 9.509-3.117 2.589-2.06 4.121-4.807 4.596-8.136h-11.622V20.47h15.69c-.052 5.547-1.69 9.985-5.019 13.26-3.328 3.276-7.713 4.913-13.26 4.913-6.709 0-12.045-2.272-15.955-6.815-3.011-3.487-4.543-7.502-4.543-12.098 0-3.381.845-6.55 2.589-9.51 1.743-2.958 4.12-5.23 7.132-6.867 3.011-1.638 6.445-2.483 10.249-2.483 3.064 0 5.97.528 8.717 1.637 2.641 1.11 5.336 2.853 7.924 5.283ZM148.136 5.676V1.45h.845l28.687 33.336v3.803h-.845L148.136 5.676ZM177.668 5.782V29.82l-3.751-4.333V1.45l3.751 4.332ZM148.136 34.046V10.695l3.909 4.49V38.59l-3.909-4.543ZM123.834 9.374c-2.008-3.011-4.755-5.124-8.295-6.34-2.43-.845-6.392-1.32-11.833-1.32h-7.133l3.117 3.54h2.589c5.23 0 8.981.316 11.253 1.003 3.011.898 5.389 2.589 7.079 5.072 1.691 2.483 2.536 5.441 2.536 8.875 0 3.329-.792 6.129-2.325 8.4-1.584 2.272-3.698 3.857-6.445 4.755-1.955.634-5.441.951-10.46.951H99.69V10.59l-3.486-3.963v31.117h11.569c4.544 0 8.083-.634 10.566-1.955 2.536-1.32 4.544-3.328 6.129-6.075 1.585-2.747 2.377-5.917 2.377-9.51-.053-4.173-1.004-7.766-3.011-10.83Z" fill="#252D35"/></svg>