<svg width="48" height="5" fill="none" xmlns="http://www.w3.org/2000/svg"><path d="M1.162 2.958c.212.211.476.317.793.317.317 0 .581-.106.792-.317.212-.212.317-.476.317-.845 0-.317-.105-.634-.317-.846A1.075 1.075 0 0 0 1.955.95c-.317 0-.581.106-.793.317-.211.212-.317.476-.317.846s.106.634.317.845Zm2.114.475c-.37.37-.793.529-1.268.529-.476 0-.951-.159-1.268-.529A1.717 1.717 0 0 1 .21 2.165c0-.528.159-.95.529-1.268.37-.37.792-.528 1.268-.528.475 0 .95.159 1.268.528.37.37.528.793.528 1.268 0 .529-.211.951-.528 1.268ZM6.076 3.962c-.529 0-.951-.158-1.321-.528-.317-.37-.528-.792-.528-1.32 0-.53.158-.952.528-1.322.317-.37.792-.528 1.32-.528.318 0 .635.053.899.211.264.159.475.37.634.582l-.581.37a1.234 1.234 0 0 0-.37-.37.893.893 0 0 0-.529-.159c-.317 0-.634.106-.845.317-.211.211-.317.476-.317.845 0 .317.106.634.317.846.211.211.476.317.845.317.212 0 .37-.053.529-.159.158-.106.264-.211.37-.37l.528.476c-.159.264-.37.475-.634.581-.264.158-.528.211-.845.211ZM10.091.422h.687V3.91h-.687V2.483h-1.32v1.426h-.688V.422h.687v1.374h1.321V.422ZM12.415 2.959c.212.211.476.317.793.317.317 0 .581-.106.792-.317.212-.212.317-.476.317-.845 0-.317-.105-.634-.317-.846a1.075 1.075 0 0 0-.792-.317c-.317 0-.581.106-.793.317-.21.212-.317.476-.317.846s.106.633.317.845Zm2.06.475c-.369.37-.792.529-1.267.529-.476 0-.951-.159-1.268-.529a1.717 1.717 0 0 1-.528-1.268c0-.528.158-.95.528-1.268.37-.37.792-.528 1.268-.528.475 0 .95.159 1.268.528.37.37.528.793.528 1.268 0 .529-.158.951-.528 1.268ZM17.117 3.275a.404.404 0 0 0 .264-.105c.053-.053.106-.159.106-.317 0-.106-.053-.212-.106-.317a.404.404 0 0 0-.264-.106h-.793v.845h.793Zm-.106-2.219h-.686v.793h.686a.403.403 0 0 0 .264-.106.403.403 0 0 0 .106-.264.403.403 0 0 0-.106-.264.29.29 0 0 0-.264-.159Zm.74 1.057c.317.158.475.423.475.792 0 .317-.105.529-.317.74-.21.211-.475.264-.792.264h-1.48V.422h1.374c.317 0 .529.106.74.265.211.158.317.422.317.686 0 .317-.106.529-.317.74ZM19.653 2.641h.95l-.475-1.426-.475 1.426Zm1.374 1.268-.212-.634h-1.373l-.212.634h-.74L19.707.422h.845l1.215 3.487h-.74ZM24.25.422h.686V3.91h-.687V2.483h-1.32v1.426h-.687V.422h.686v1.374h1.321V.422ZM26.574 2.959c.21.211.475.317.792.317.317 0 .581-.106.793-.317.21-.212.317-.476.317-.845 0-.317-.106-.634-.317-.846a1.075 1.075 0 0 0-.793-.317c-.317 0-.581.106-.792.317-.212.212-.317.476-.317.846-.053.37.052.633.317.845Zm2.06.475c-.37.37-.793.529-1.268.529-.528 0-.95-.159-1.268-.529a1.717 1.717 0 0 1-.528-1.268c0-.528.158-.95.528-1.268.37-.37.793-.528 1.268-.528.528 0 .951.159 1.268.528.37.37.528.793.528 1.268 0 .529-.158.951-.528 1.268ZM32.65 3.275a.403.403 0 0 0 .263-.105c.053-.053.106-.159.106-.317 0-.106-.053-.212-.106-.317a.403.403 0 0 0-.264-.106h-.792v.845h.792Zm-.106-2.219h-.687v.793h.687a.404.404 0 0 0 .264-.106.404.404 0 0 0 .105-.264.404.404 0 0 0-.105-.264.29.29 0 0 0-.264-.159Zm.74 1.057c.316.158.475.423.475.792 0 .317-.106.529-.317.74-.212.211-.476.264-.793.264h-1.48V.422h1.375c.317 0 .528.106.74.265.21.158.316.422.316.686 0 .317-.105.529-.317.74ZM35.502 3.91v-.528l1.215-1.216c.264-.264.423-.528.423-.686 0-.159-.053-.264-.106-.317-.105-.106-.211-.106-.317-.106-.264 0-.475.159-.581.423l-.687-.423a.945.945 0 0 1 .476-.528c.211-.106.422-.212.687-.212.316 0 .58.106.792.317.211.212.317.476.317.793 0 .37-.211.74-.581 1.11l-.687.686h1.32v.687h-2.271ZM39.148 3.012a.581.581 0 0 0 .528.317.58.58 0 0 0 .528-.317c.106-.212.159-.476.159-.846s-.053-.634-.159-.845a.58.58 0 0 0-.528-.317.581.581 0 0 0-.529.317c-.105.211-.158.476-.158.845-.053.37 0 .634.159.846Zm.528.95c-.423 0-.793-.158-1.004-.475-.264-.317-.37-.792-.37-1.32 0-.529.106-1.004.37-1.321A1.227 1.227 0 0 1 39.676.37c.422 0 .792.159 1.004.476.264.317.37.792.37 1.32 0 .529-.106 1.004-.37 1.321-.212.317-.581.476-1.004.476ZM42.423 3.012a.581.581 0 0 0 .528.317.581.581 0 0 0 .529-.317c.105-.212.158-.476.158-.846s-.053-.634-.158-.845a.581.581 0 0 0-.529-.317.581.581 0 0 0-.528.317c-.106.211-.159.476-.159.845-.052.37 0 .634.159.846Zm.528.95c-.422 0-.792-.158-1.004-.475-.264-.317-.37-.792-.37-1.32 0-.529.106-1.004.37-1.321A1.227 1.227 0 0 1 42.951.37c.423 0 .793.159 1.004.476.264.317.37.792.37 1.32 0 .529-.106 1.004-.37 1.321-.211.317-.581.476-1.004.476ZM46.28 1.85c.21.052.422.21.58.369.16.158.212.37.212.634 0 .37-.106.634-.37.845a1.333 1.333 0 0 1-.898.317c-.264 0-.528-.053-.74-.211-.211-.106-.37-.317-.475-.528l.581-.317c.106.264.264.422.634.422a.995.995 0 0 0 .423-.105.48.48 0 0 0 .158-.37.48.48 0 0 0-.158-.37c-.106-.106-.212-.106-.423-.106h-.159l-.264-.422.687-.898h-1.373V.476h2.218v.58l-.634.793Z" fill="#252D35"/></svg>