<svg width="81" height="78" fill="none" xmlns="http://www.w3.org/2000/svg"><path d="M77.992 8.53c-.1 1.707-.401 3.413-1.205 4.919-.602 1.204-1.907 2.309-3.01 3.112-2.109 1.505-4.92 1.304-7.328.602.401 1.003 0 2.208-.803 3.011-.803.803-1.907 1.104-3.012 1.104-.3 0-.702 0-1.003-.1v-.602h-1.406c-.1-.1-.2-.1-.3-.201l.2.2h-10.54c-.3-.602-.401-1.204-.401-1.806-.1-2.108 1.405-4.316 3.413-4.718 1.204-.301 2.208-.1 3.413.2-1.908-1.605-2.008-4.617-.402-6.624 1.405-1.706 4.015-2.309 6.023-1.305-.1.301-.201.703-.301 1.004l1.003-.602c-.2-.201-.401-.302-.702-.402.502-1.506 1.104-2.81 3.01-4.316.703-.703 1.607-1.004 2.61-1.205 1.306-.3 2.61-.502 3.915-.3 1.907.3 3.614 1.204 4.818 2.71 1.205 1.505 2.108 3.412 2.008 5.32Z" fill="#B8884B"/><path d="M60.225 20.576h1.305v.502c-.401-.1-.903-.201-1.305-.502ZM62.5 6l.5 1-1.8.504c.1-.302.2-.703.3-1.004 0-.5.8-.6 1-.5ZM30.313 58.016h-26.6v9.435h26.6v-9.435Z" fill="#B8884B"/><path d="M78.092 75.783V47.677H64.04l-1.807-27.603h-13.15l-1.907 27.603h-3.714l-.1-11.844-12.246 10.84-.1-10.94-12.146 10.94-.1-10.84L5.42 47.677H2.208v28.106H.2v2.007h80v-2.007h-2.108ZM50.89 22.08h9.436l1.706 25.596H49.184l1.706-25.596ZM41.355 40.25l.1 7.428h-8.432l8.331-7.428Zm-12.347 0 .1 7.428h-8.431l8.331-7.428Zm-12.246 0 .1 7.428h-8.43l8.33-7.428Zm59.323 35.534H63.839V57.514H61.83v18.269h-8.23V57.514h-2.008v18.269h-8.231V57.514h-2.008v18.269H4.215V49.685h71.97v26.098h-.1Z" fill="#01305E"/></svg>