<svg width="81" height="81" fill="none" xmlns="http://www.w3.org/2000/svg"><path d="M40.5.5C18.424.5.5 18.424.5 40.5s17.924 40 40 40 40-17.924 40-40-17.924-40-40-40Zm0 77.975c-20.962 0-37.975-17.013-37.975-37.975S19.538 2.525 40.5 2.525 78.475 19.538 78.475 40.5 61.462 78.475 40.5 78.475Z" fill="#01305E"/><path d="M54.778 26.221 34.12 34.12 26.22 54.778 46.88 46.88l7.9-20.658Z" fill="#B8884B"/><path d="M40.5 7.285C22.17 7.285 7.285 22.17 7.285 40.5c0 18.329 14.886 33.215 33.215 33.215 18.329 0 33.215-14.886 33.215-33.215 0-18.33-14.886-33.215-33.215-33.215Zm22.683 54.48-3.341-3.341-1.418 1.418 3.342 3.341c-5.367 5.064-12.456 8.203-20.355 8.405v-7.493h-2.025v7.392c-7.798-.304-14.886-3.443-20.152-8.405l3.342-3.342-1.418-1.417-3.342 3.443c-5.063-5.367-8.202-12.456-8.405-20.253h7.393v-2.026H9.41c.203-7.797 3.342-14.886 8.405-20.253l3.342 3.342 1.418-1.418-3.342-3.342c5.367-5.063 12.456-8.202 20.253-8.405v7.393h2.026V9.41c7.898.203 14.987 3.342 20.354 8.405l-3.342 3.342 1.418 1.418 3.342-3.342c5.063 5.367 8.202 12.456 8.405 20.253h-7.494v2.026h7.494c-.304 7.797-3.443 14.987-8.507 20.253Z" fill="#01305E"/></svg>