<svg width="50" height="50" fill="none" xmlns="http://www.w3.org/2000/svg"><path fill="#fff" stroke="#252D35" stroke-width="2" d="M1 1h48v48H1z"/><path d="M33.485 28.515a11.954 11.954 0 0 0-4.56-2.86 6.935 6.935 0 0 0 3.012-5.718A6.945 6.945 0 0 0 25 13a6.945 6.945 0 0 0-6.938 6.938 6.935 6.935 0 0 0 3.013 5.716 11.954 11.954 0 0 0-4.56 2.86A11.921 11.921 0 0 0 13 37h1.875c0-5.583 4.542-10.125 10.125-10.125S35.125 31.417 35.125 37H37c0-3.205-1.248-6.219-3.515-8.485ZM25 25a5.068 5.068 0 0 1-5.063-5.063A5.068 5.068 0 0 1 25 14.875a5.068 5.068 0 0 1 5.063 5.063A5.068 5.068 0 0 1 25 25Z" fill="#252D35"/></svg>