<svg width="20" height="20" fill="none" xmlns="http://www.w3.org/2000/svg"><path d="M14.481 20c-.905 0-2.011-.2-3.117-.7-2.012-.8-4.325-2.402-6.336-4.403-2.011-2.001-3.52-4.203-4.425-6.304C.201 7.593 0 6.492 0 5.591c0-1.2.402-2.301 1.106-3.002l1.61-1.6C4.022-.313 6.133-.313 7.541.888l2.313 2.3c.905.901 1.207 2.102.905 3.303-.2 1-.905 1.8-1.81 2.201.302.4.604.9 1.106 1.3.403.401.905.701 1.207.902.402-.901 1.207-1.501 2.213-1.702 1.206-.3 2.514 0 3.318.901l2.213 2.201c1.307 1.301 1.307 3.502.1 4.903v.1L17.6 18.8c-.805.8-1.81 1.201-3.118 1.201ZM5.13 1.99c-.402 0-.704.1-1.006.4l-1.508 1.5c-.403.4-.604 1-.604 1.701 0 .7.201 1.401.503 2.302.704 1.8 2.112 3.802 3.922 5.603 1.81 1.801 3.822 3.202 5.632 4.002.905.4 1.71.6 2.313.5.704 0 1.307-.2 1.609-.6l1.508-1.5c.503-.6.604-1.501 0-2.202l-2.212-2.201c-.403-.4-.905-.5-1.509-.4-.503.1-.905.5-1.005.9-.302.7-1.006 1.1-1.71 1-.804-.2-1.71-.8-2.615-1.6-.704-.8-1.307-1.701-1.408-2.502-.1-.3-.1-.7.101-1 .201-.3.503-.6.805-.7.502-.2.905-.501 1.005-1.001.1-.6 0-1.201-.402-1.501L6.235 2.389c-.302-.2-.704-.4-1.106-.4Z" fill="#252D35"/></svg>