<svg width="81" height="68" fill="none" xmlns="http://www.w3.org/2000/svg"><path d="m63.406 2.43-2.442 10.077-2.036-.51 1.629-6.411-16.693 10.89-18.83-12.213L6.817 16.375l-1.221-1.73L25.035 1.82l18.83 12.213L59.436 3.855l-6.514-1.12L53.228.7l10.178 1.73ZM67.987 20.039v21.577l2.035 13.944-4.58 2.24-4.173-1.934h-1.527V20.038h8.245Zm-38.78 0v35.725h-8.243V20.039h8.244ZM48.14 32.456v23.206h-8.244V32.456h8.244Zm-37.76.509v22.799H2.235v-22.8h8.142Zm59.643-14.962H57.707v37.76h-7.43V30.42H37.96v25.242h-6.717v-37.66H18.928v37.762h-6.514V30.929H.2V57.8h69.822V18.003Z" fill="#01305E"/><path d="M65.34 48.843c2.138 0 3.97 1.73 3.97 3.97 0 2.137-1.73 3.969-3.97 3.969-2.137 0-3.969-1.73-3.969-3.97 0-2.137 1.73-3.97 3.97-3.97Zm0-8.143a12.076 12.076 0 0 0-12.112 12.112 12.076 12.076 0 0 0 12.113 12.112 12.076 12.076 0 0 0 12.111-12.112c0-6.717-5.496-12.112-12.111-12.112Z" fill="#B8884B"/><path d="M68.903 37.647h-7.227l-1.018 7.023h9.262l-1.017-7.023Z" fill="#B8884B"/><path d="M68.903 37.647h-7.227l-.509 3.766a13.289 13.289 0 0 0-3.664 2.137l-3.562-1.425-3.563 6.209 3.054 2.341c-.102.61-.204 1.323-.204 2.036 0 .814.102 1.526.204 2.239l-2.952 2.442 3.664 6.21 3.563-1.426a14.734 14.734 0 0 0 3.46 2.036l.51 3.766h7.226l.508-3.766a13.294 13.294 0 0 0 3.665-2.138l3.562 1.425 3.562-6.208-3.053-2.341c.102-.61.203-1.323.203-2.036 0-.814-.101-1.527-.203-2.239l2.951-2.443-3.664-6.208-3.562 1.425a14.736 14.736 0 0 0-3.46-2.036l-.51-3.766ZM65.34 56.782c-2.137 0-3.97-1.832-3.97-3.97 0-2.137 1.833-3.97 3.97-3.97 2.138 0 3.97 1.833 3.97 3.97 0 2.138-1.832 3.97-3.97 3.97Z" fill="#B8884B"/></svg>