<svg width="80" height="80" fill="none" xmlns="http://www.w3.org/2000/svg"><path d="M74.815 67.372a6.223 6.223 0 0 0 1.017-3.359V60.96c0-3.156-2.442-5.802-5.597-6.107v-8.346H9.164v8.448c-3.154.305-5.597 2.85-5.597 6.107v3.053c0 1.221.407 2.34 1.018 3.359A9.835 9.835 0 0 0-.3 76.024v3.663h20.967v-3.664a9.834 9.834 0 0 0-4.885-8.55 6.224 6.224 0 0 0 1.017-3.358v-3.053c0-3.156-2.442-5.802-5.598-6.107v-6.31h27.481v6.31c-3.155.305-5.598 2.85-5.598 6.107v3.053c0 1.221.407 2.34 1.018 3.359a9.835 9.835 0 0 0-4.885 8.55v3.663h20.967v-3.664a9.835 9.835 0 0 0-4.886-8.55 6.225 6.225 0 0 0 1.018-3.358v-3.053c0-3.156-2.443-5.802-5.598-6.107v-6.31h27.48v6.31c-3.154.305-5.597 2.85-5.597 6.107v3.053c0 1.221.407 2.34 1.018 3.359a9.834 9.834 0 0 0-4.886 8.55v3.663H79.7v-3.664c0-3.664-1.934-6.92-4.885-8.651Zm-56.183 8.55v1.628H1.736v-1.628c0-3.054 1.73-5.7 4.275-7.023 1.017.814 2.34 1.221 3.664 1.221h1.018c1.425 0 2.646-.407 3.664-1.221a7.907 7.907 0 0 1 4.274 7.023Zm-3.868-14.86v3.053c0 .916-.305 1.73-.814 2.443-.611.814-1.527 1.323-2.545 1.526-.204.102-.407.102-.712.102H9.675c-.306 0-.51 0-.713-.102-1.018-.203-1.934-.712-2.544-1.526-.51-.713-.814-1.527-.814-2.443v-3.053a4.083 4.083 0 0 1 4.07-4.072h1.019a4.083 4.083 0 0 1 4.07 4.072Zm33.384 14.86v1.628H31.252v-1.628c0-3.054 1.73-5.7 4.275-7.023 1.018.814 2.341 1.221 3.664 1.221h1.018c1.425 0 2.646-.407 3.664-1.221a7.907 7.907 0 0 1 4.275 7.023Zm-3.868-14.86v3.053c0 .916-.305 1.73-.814 2.443-.61.814-1.527 1.323-2.544 1.526-.204.102-.408.102-.713.102h-1.018c-.305 0-.509 0-.712-.102-1.018-.203-1.934-.712-2.545-1.526-.509-.713-.814-1.527-.814-2.443v-3.053a4.083 4.083 0 0 1 4.071-4.072h1.018a4.083 4.083 0 0 1 4.071 4.072Zm20.357 0a4.083 4.083 0 0 1 4.07-4.072h1.019a4.083 4.083 0 0 1 4.07 4.072v3.053c0 .916-.305 1.73-.813 2.443-.611.814-1.527 1.323-2.545 1.526-.204.102-.407.102-.712.102h-1.018c-.305 0-.51 0-.713-.102-1.017-.203-1.934-.712-2.544-1.526-.51-.713-.814-1.527-.814-2.443v-3.053ZM77.665 77.55H60.769v-1.628c0-3.054 1.73-5.7 4.275-7.023 1.017.814 2.34 1.221 3.664 1.221h1.018c1.425 0 2.646-.407 3.664-1.221a7.907 7.907 0 0 1 4.275 7.023v1.628Z" fill="#01305E"/><path d="M40.718 40.807h-2.035v6.82h2.035v-6.82Z" fill="#01305E"/><path d="M38.479 21.57c.203 0 .509.102.712.102h1.018c.305 0 .51 0 .713-.102 1.018-.203 1.934-.712 2.544-1.526.51-.713.814-1.527.814-2.443v-3.054a4.083 4.083 0 0 0-4.07-4.07H39.19a4.083 4.083 0 0 0-4.07 4.07v3.054c0 .916.304 1.73.813 2.443.611.712 1.527 1.323 2.545 1.526ZM43.873 22.385c-1.017.814-2.34 1.221-3.664 1.221h-1.018c-1.425 0-2.646-.407-3.664-1.221a7.906 7.906 0 0 0-4.275 7.023v1.628h16.896v-1.628c0-3.054-1.73-5.7-4.275-7.023Z" fill="#B8884B"/><path d="M39.7.4C28.505.4 19.344 9.56 19.344 20.756c0 11.196 9.16 20.356 20.356 20.356 11.196 0 20.357-9.16 20.357-20.356C60.057 9.458 50.897.4 39.7.4Zm10.484 29.007v3.665H29.217v-3.665a9.835 9.835 0 0 1 4.886-8.55 6.223 6.223 0 0 1-1.018-3.358v-3.053c0-3.155 2.442-5.802 5.598-6.107h2.035c3.155.305 5.598 2.85 5.598 6.107v3.053c0 1.222-.407 2.341-1.018 3.359a9.835 9.835 0 0 1 4.886 8.55Z" fill="#B8884B"/></svg>