<svg width="40" height="40" fill="none" xmlns="http://www.w3.org/2000/svg"><path opacity=".5" fill="#252D35" d="M0 0h40v40H0z"/><path d="M29.15 14.325c-.542-.965-1.131-1.143-2.33-1.21-1.198-.081-4.209-.115-6.817-.115-2.614 0-5.627.034-6.823.114-1.196.068-1.786.245-2.334 1.211-.559.964-.846 2.624-.846 5.546v.01c0 2.91.287 4.583.846 5.537.548.965 1.136 1.14 2.333 1.22 1.197.07 4.21.112 6.824.112 2.608 0 5.62-.041 6.818-.11 1.199-.081 1.788-.256 2.33-1.221.564-.954.849-2.627.849-5.537v-.01c0-2.923-.285-4.583-.85-5.547Zm-11.65 9.3v-7.5l6.25 3.75-6.25 3.75Z" fill="#fff"/></svg>